<svg xmlns="http://www.w3.org/2000/svg" xmlns:xlink="http://www.w3.org/1999/xlink" viewBox="0,0,256,256" width="50px" height="50px"><g transform="translate(-122.88,-122.88) scale(1.96,1.96)"><g fill="none" fill-rule="nonzero" stroke="none" stroke-width="1" stroke-linecap="butt" stroke-linejoin="miter" stroke-miterlimit="10" stroke-dasharray="" stroke-dashoffset="0" font-family="none" font-weight="none" font-size="none" text-anchor="none" style="mix-blend-mode: normal"><g transform="scale(2.56,2.56)"><circle cx="13" cy="29" r="2" fill="#ef8742"></circle><circle cx="77" cy="13" r="1" fill="#f1bc19"></circle><circle cx="50" cy="50" r="37" fill="#e7d6b2"></circle><circle cx="83" cy="15" r="4" fill="#f1bc19"></circle><circle cx="87" cy="24" r="2" fill="#ef8742"></circle><circle cx="81" cy="76" r="2" fill="#fbcd59"></circle><circle cx="15" cy="63" r="4" fill="#fbcd59"></circle><circle cx="25" cy="87" r="2" fill="#ef8742"></circle><circle cx="18.5" cy="53.5" r="2.5" fill="#ffffff"></circle><circle cx="21" cy="67" r="1" fill="#f1bc19"></circle><circle cx="80" cy="34" r="1" fill="#ffffff"></circle><path d="M28.005,65.001l-0.004,-30c0,-3.866 3.134,-7.001 7,-7.001h29.999c3.866,0 7,3.134 7,7v30c0,3.866 -3.134,7 -7,7h-29.995c-3.866,0 -7,-3.133 -7,-6.999z" fill="#e1e0d8"></path><path d="M65,28.4c3.639,0 6.6,2.961 6.6,6.6v30c0,3.639 -2.961,6.6 -6.6,6.6h-30c-3.639,0 -6.6,-2.961 -6.6,-6.6v-30c0,-3.639 2.961,-6.6 6.6,-6.6h30M65,27h-30c-4.418,0 -8,3.582 -8,8v30c0,4.418 3.582,8 8,8h30c4.418,0 8,-3.582 8,-8v-30c0,-4.418 -3.582,-8 -8,-8z" fill="#472b29"></path><circle cx="50" cy="50" r="19" fill="#836f61"></circle><path d="M65.755,39.627c-0.08,0 -0.159,-0.039 -0.207,-0.11c-3.497,-5.177 -9.309,-8.267 -15.548,-8.267c-0.749,0 -1.504,0.045 -2.245,0.133c-0.134,0.015 -0.262,-0.081 -0.278,-0.218c-0.017,-0.137 0.082,-0.262 0.218,-0.278c0.76,-0.091 1.536,-0.137 2.304,-0.137c6.405,0 12.372,3.173 15.962,8.487c0.078,0.115 0.047,0.27 -0.067,0.347c-0.042,0.029 -0.091,0.043 -0.139,0.043z" fill="#472b29"></path><path d="M67.706,43.343c-0.1,0 -0.194,-0.061 -0.233,-0.159c-0.216,-0.554 -0.463,-1.106 -0.734,-1.641c-0.063,-0.123 -0.013,-0.273 0.11,-0.336c0.123,-0.061 0.274,-0.012 0.336,0.11c0.278,0.548 0.531,1.115 0.753,1.685c0.05,0.128 -0.013,0.273 -0.142,0.324c-0.029,0.011 -0.06,0.017 -0.09,0.017z" fill="#472b29"></path><path d="M62.503,64.557c-0.069,0 -0.139,-0.029 -0.188,-0.085c-0.091,-0.104 -0.081,-0.262 0.023,-0.353c4.075,-3.564 6.412,-8.71 6.412,-14.119c0,-1.658 -0.217,-3.303 -0.644,-4.89c-0.036,-0.133 0.043,-0.271 0.176,-0.306c0.133,-0.035 0.271,0.042 0.306,0.176c0.439,1.629 0.661,3.318 0.661,5.02c0,5.553 -2.399,10.836 -6.583,14.495c-0.046,0.041 -0.104,0.062 -0.163,0.062z" fill="#472b29"></path><path d="M58.772,67.108c-0.09,0 -0.177,-0.049 -0.222,-0.134c-0.064,-0.123 -0.017,-0.273 0.106,-0.337c0.594,-0.31 1.178,-0.655 1.734,-1.026c0.113,-0.077 0.27,-0.046 0.347,0.069c0.077,0.115 0.045,0.27 -0.069,0.347c-0.571,0.381 -1.17,0.735 -1.78,1.054c-0.037,0.018 -0.077,0.027 -0.116,0.027z" fill="#472b29"></path><path d="M50,69.25c-7.157,0 -13.682,-3.934 -17.03,-10.267c-0.064,-0.122 -0.018,-0.273 0.104,-0.338c0.122,-0.063 0.273,-0.018 0.338,0.104c3.26,6.168 9.616,10 16.587,10c2.365,0 4.671,-0.435 6.854,-1.292c0.127,-0.051 0.273,0.013 0.324,0.142c0.05,0.128 -0.013,0.273 -0.142,0.324c-2.239,0.881 -4.607,1.327 -7.035,1.327z" fill="#472b29"></path><path d="M32.312,57.201c-0.1,0 -0.194,-0.06 -0.232,-0.159c-0.471,-1.195 -0.821,-2.444 -1.042,-3.712c-0.024,-0.136 0.067,-0.266 0.203,-0.289c0.132,-0.029 0.265,0.066 0.289,0.203c0.215,1.235 0.557,2.452 1.015,3.616c0.051,0.128 -0.012,0.273 -0.141,0.324c-0.031,0.011 -0.062,0.017 -0.092,0.017z" fill="#472b29"></path><path d="M31.004,49.849c-0.001,0 -0.003,0 -0.005,0c-0.138,-0.003 -0.248,-0.117 -0.245,-0.255c0.145,-7.011 4.1,-13.392 10.32,-16.653c0.121,-0.064 0.273,-0.018 0.337,0.105c0.064,0.123 0.017,0.273 -0.105,0.337c-6.059,3.177 -9.911,9.393 -10.052,16.222c-0.003,0.136 -0.114,0.244 -0.25,0.244z" fill="#472b29"></path><path d="M43.054,32.56c-0.1,0 -0.194,-0.06 -0.233,-0.159c-0.05,-0.128 0.013,-0.273 0.142,-0.324c0.893,-0.351 1.821,-0.636 2.758,-0.849c0.135,-0.032 0.268,0.054 0.299,0.188c0.031,0.134 -0.054,0.269 -0.188,0.299c-0.912,0.208 -1.816,0.486 -2.686,0.828c-0.031,0.011 -0.062,0.017 -0.092,0.017z" fill="#472b29"></path><path d="M50,37c-0.276,0 -0.5,-0.224 -0.5,-0.5v-3c0,-0.276 0.224,-0.5 0.5,-0.5c0.276,0 0.5,0.224 0.5,0.5v3c0,0.276 -0.224,0.5 -0.5,0.5z" fill="#472b29"></path><path d="M47.655,37.205c-0.238,0 -0.449,-0.17 -0.492,-0.413l-0.521,-2.955c-0.048,-0.272 0.133,-0.531 0.405,-0.579c0.269,-0.049 0.531,0.133 0.579,0.405l0.521,2.955c0.048,0.272 -0.133,0.531 -0.405,0.579c-0.029,0.006 -0.058,0.008 -0.087,0.008z" fill="#472b29"></path><path d="M45.383,37.814c-0.204,0 -0.396,-0.126 -0.47,-0.329l-1.026,-2.819c-0.095,-0.259 0.039,-0.546 0.299,-0.641c0.259,-0.094 0.546,0.039 0.641,0.299l1.026,2.819c0.095,0.259 -0.039,0.546 -0.299,0.641c-0.056,0.02 -0.115,0.03 -0.171,0.03z" fill="#472b29"></path><path d="M43.25,38.809c-0.173,0 -0.341,-0.089 -0.434,-0.25l-1.5,-2.598c-0.138,-0.239 -0.056,-0.545 0.183,-0.683c0.238,-0.138 0.544,-0.057 0.683,0.183l1.5,2.598c0.138,0.239 0.056,0.545 -0.183,0.683c-0.078,0.045 -0.164,0.067 -0.249,0.067z" fill="#472b29"></path><path d="M41.323,40.158c-0.143,0 -0.285,-0.061 -0.383,-0.179l-1.928,-2.298c-0.178,-0.211 -0.15,-0.527 0.062,-0.704c0.213,-0.178 0.528,-0.149 0.704,0.062l1.928,2.298c0.178,0.211 0.15,0.527 -0.062,0.704c-0.094,0.079 -0.208,0.117 -0.321,0.117z" fill="#472b29"></path><path d="M39.658,41.822c-0.113,0 -0.227,-0.039 -0.321,-0.117l-2.298,-1.928c-0.211,-0.177 -0.239,-0.493 -0.062,-0.704c0.177,-0.211 0.493,-0.239 0.704,-0.062l2.298,1.928c0.211,0.177 0.239,0.493 0.062,0.704c-0.099,0.119 -0.24,0.179 -0.383,0.179z" fill="#472b29"></path><path d="M38.308,43.75c-0.085,0 -0.171,-0.021 -0.25,-0.067l-2.598,-1.5c-0.239,-0.138 -0.321,-0.444 -0.183,-0.683c0.138,-0.239 0.444,-0.321 0.683,-0.183l2.598,1.5c0.239,0.138 0.321,0.444 0.183,0.683c-0.092,0.16 -0.26,0.25 -0.433,0.25z" fill="#472b29"></path><path d="M37.314,45.883c-0.057,0 -0.115,-0.01 -0.171,-0.03l-2.819,-1.026c-0.26,-0.094 -0.394,-0.381 -0.299,-0.641c0.094,-0.26 0.383,-0.393 0.641,-0.299l2.819,1.026c0.26,0.094 0.394,0.381 0.299,0.641c-0.074,0.203 -0.266,0.329 -0.47,0.329z" fill="#472b29"></path><path d="M36.706,48.156c-0.029,0 -0.058,-0.002 -0.087,-0.008l-2.955,-0.521c-0.272,-0.048 -0.454,-0.307 -0.405,-0.579c0.048,-0.272 0.306,-0.457 0.579,-0.405l2.955,0.521c0.272,0.048 0.454,0.307 0.405,0.579c-0.043,0.242 -0.254,0.413 -0.492,0.413z" fill="#472b29"></path><path d="M36.5,50.5h-3c-0.276,0 -0.5,-0.224 -0.5,-0.5c0,-0.276 0.224,-0.5 0.5,-0.5h3c0.276,0 0.5,0.224 0.5,0.5c0,0.276 -0.224,0.5 -0.5,0.5z" fill="#472b29"></path><path d="M33.75,53.365c-0.238,0 -0.449,-0.17 -0.492,-0.413c-0.048,-0.272 0.133,-0.531 0.405,-0.579l2.955,-0.521c0.272,-0.051 0.531,0.133 0.579,0.405c0.048,0.272 -0.133,0.531 -0.405,0.579l-2.955,0.521c-0.029,0.006 -0.058,0.008 -0.087,0.008z" fill="#472b29"></path><path d="M34.495,56.144c-0.204,0 -0.396,-0.126 -0.47,-0.329c-0.095,-0.259 0.039,-0.546 0.299,-0.641l2.819,-1.026c0.259,-0.094 0.546,0.039 0.641,0.299c0.095,0.259 -0.039,0.546 -0.299,0.641l-2.819,1.026c-0.056,0.02 -0.114,0.03 -0.171,0.03z" fill="#472b29"></path><path d="M35.711,58.75c-0.173,0 -0.341,-0.089 -0.434,-0.25c-0.138,-0.239 -0.056,-0.545 0.183,-0.683l2.598,-1.5c0.238,-0.139 0.544,-0.057 0.683,0.183c0.138,0.239 0.056,0.545 -0.183,0.683l-2.598,1.5c-0.078,0.046 -0.164,0.067 -0.249,0.067z" fill="#472b29"></path><path d="M37.361,61.106c-0.143,0 -0.285,-0.061 -0.383,-0.179c-0.178,-0.211 -0.15,-0.527 0.062,-0.704l2.298,-1.928c0.213,-0.178 0.528,-0.15 0.704,0.062c0.178,0.211 0.15,0.527 -0.062,0.704l-2.298,1.928c-0.094,0.078 -0.208,0.117 -0.321,0.117z" fill="#472b29"></path><path d="M39.394,63.14c-0.113,0 -0.227,-0.039 -0.321,-0.117c-0.211,-0.177 -0.239,-0.493 -0.062,-0.704l1.928,-2.298c0.177,-0.212 0.492,-0.239 0.704,-0.062c0.211,0.177 0.239,0.493 0.062,0.704l-1.928,2.298c-0.099,0.118 -0.24,0.179 -0.383,0.179z" fill="#472b29"></path><path d="M41.75,64.79c-0.085,0 -0.171,-0.021 -0.25,-0.067c-0.239,-0.138 -0.321,-0.444 -0.183,-0.683l1.5,-2.598c0.138,-0.24 0.443,-0.322 0.683,-0.183c0.239,0.138 0.321,0.444 0.183,0.683l-1.5,2.598c-0.093,0.16 -0.261,0.25 -0.433,0.25z" fill="#472b29"></path><path d="M44.356,66.005c-0.057,0 -0.115,-0.01 -0.171,-0.03c-0.26,-0.094 -0.394,-0.381 -0.299,-0.641l1.026,-2.819c0.095,-0.259 0.384,-0.392 0.641,-0.299c0.26,0.094 0.394,0.381 0.299,0.641l-1.026,2.819c-0.074,0.203 -0.265,0.329 -0.47,0.329z" fill="#472b29"></path><path d="M47.135,66.75c-0.029,0 -0.058,-0.002 -0.087,-0.008c-0.272,-0.048 -0.454,-0.307 -0.405,-0.579l0.521,-2.955c0.048,-0.272 0.307,-0.455 0.579,-0.405c0.272,0.048 0.454,0.307 0.405,0.579l-0.521,2.955c-0.043,0.242 -0.253,0.413 -0.492,0.413z" fill="#472b29"></path><path d="M50,67c-0.276,0 -0.5,-0.224 -0.5,-0.5v-3c0,-0.276 0.224,-0.5 0.5,-0.5c0.276,0 0.5,0.224 0.5,0.5v3c0,0.276 -0.224,0.5 -0.5,0.5z" fill="#472b29"></path><path d="M52.865,66.75c-0.238,0 -0.449,-0.17 -0.492,-0.413l-0.521,-2.955c-0.048,-0.272 0.133,-0.531 0.405,-0.579c0.27,-0.051 0.532,0.133 0.579,0.405l0.521,2.955c0.048,0.272 -0.133,0.531 -0.405,0.579c-0.029,0.005 -0.058,0.008 -0.087,0.008z" fill="#472b29"></path><path d="M55.644,66.005c-0.204,0 -0.396,-0.126 -0.47,-0.329l-1.026,-2.819c-0.095,-0.259 0.039,-0.546 0.299,-0.641c0.259,-0.093 0.546,0.04 0.641,0.299l1.026,2.819c0.095,0.259 -0.039,0.546 -0.299,0.641c-0.057,0.02 -0.115,0.03 -0.171,0.03z" fill="#472b29"></path><path d="M58.25,64.79c-0.173,0 -0.341,-0.089 -0.434,-0.25l-1.5,-2.598c-0.138,-0.239 -0.056,-0.545 0.183,-0.683c0.237,-0.139 0.544,-0.057 0.683,0.183l1.5,2.598c0.138,0.239 0.056,0.545 -0.183,0.683c-0.078,0.045 -0.164,0.067 -0.249,0.067z" fill="#472b29"></path><path d="M60.606,63.14c-0.143,0 -0.285,-0.061 -0.383,-0.179l-1.928,-2.298c-0.178,-0.211 -0.15,-0.527 0.062,-0.704c0.213,-0.178 0.527,-0.15 0.704,0.062l1.928,2.298c0.178,0.211 0.15,0.527 -0.062,0.704c-0.094,0.078 -0.207,0.117 -0.321,0.117z" fill="#472b29"></path><path d="M62.639,61.106c-0.113,0 -0.227,-0.039 -0.321,-0.117l-2.298,-1.928c-0.211,-0.177 -0.239,-0.493 -0.062,-0.704c0.177,-0.212 0.492,-0.239 0.704,-0.062l2.298,1.928c0.211,0.177 0.239,0.493 0.062,0.704c-0.098,0.118 -0.24,0.179 -0.383,0.179z" fill="#472b29"></path><path d="M64.289,58.75c-0.085,0 -0.171,-0.021 -0.25,-0.067l-2.598,-1.5c-0.239,-0.138 -0.321,-0.444 -0.183,-0.683c0.138,-0.239 0.444,-0.322 0.683,-0.183l2.598,1.5c0.239,0.138 0.321,0.444 0.183,0.683c-0.092,0.16 -0.26,0.25 -0.433,0.25z" fill="#472b29"></path><path d="M65.505,56.144c-0.057,0 -0.115,-0.01 -0.171,-0.03l-2.819,-1.026c-0.26,-0.094 -0.394,-0.381 -0.299,-0.641c0.095,-0.26 0.384,-0.393 0.641,-0.299l2.819,1.026c0.26,0.094 0.394,0.381 0.299,0.641c-0.074,0.203 -0.266,0.329 -0.47,0.329z" fill="#472b29"></path><path d="M66.25,53.365c-0.029,0 -0.058,-0.002 -0.087,-0.008l-2.955,-0.521c-0.272,-0.048 -0.454,-0.307 -0.405,-0.579c0.047,-0.272 0.309,-0.455 0.579,-0.405l2.955,0.521c0.272,0.048 0.454,0.307 0.405,0.579c-0.043,0.243 -0.254,0.413 -0.492,0.413z" fill="#472b29"></path><path d="M66.5,50.5h-3c-0.276,0 -0.5,-0.224 -0.5,-0.5c0,-0.276 0.224,-0.5 0.5,-0.5h3c0.276,0 0.5,0.224 0.5,0.5c0,0.276 -0.224,0.5 -0.5,0.5z" fill="#472b29"></path><path d="M63.294,48.156c-0.238,0 -0.449,-0.17 -0.492,-0.413c-0.048,-0.272 0.133,-0.531 0.405,-0.579l2.955,-0.521c0.271,-0.052 0.531,0.133 0.579,0.405c0.048,0.272 -0.133,0.531 -0.405,0.579l-2.955,0.521c-0.028,0.005 -0.058,0.008 -0.087,0.008z" fill="#472b29"></path><path d="M62.686,45.883c-0.204,0 -0.396,-0.126 -0.47,-0.329c-0.095,-0.259 0.039,-0.546 0.299,-0.641l2.819,-1.026c0.26,-0.094 0.546,0.039 0.641,0.299c0.095,0.259 -0.039,0.546 -0.299,0.641l-2.819,1.026c-0.056,0.02 -0.114,0.03 -0.171,0.03z" fill="#472b29"></path><path d="M61.692,43.75c-0.173,0 -0.341,-0.089 -0.434,-0.25c-0.138,-0.239 -0.056,-0.545 0.183,-0.683l2.598,-1.5c0.238,-0.138 0.544,-0.057 0.683,0.183c0.138,0.239 0.056,0.545 -0.183,0.683l-2.598,1.5c-0.078,0.046 -0.164,0.067 -0.249,0.067z" fill="#472b29"></path><path d="M60.342,41.822c-0.143,0 -0.285,-0.061 -0.383,-0.179c-0.178,-0.211 -0.15,-0.527 0.062,-0.704l2.298,-1.928c0.213,-0.177 0.527,-0.149 0.704,0.062c0.178,0.211 0.15,0.527 -0.062,0.704l-2.298,1.928c-0.094,0.079 -0.207,0.117 -0.321,0.117z" fill="#472b29"></path><path d="M58.677,40.158c-0.113,0 -0.227,-0.039 -0.321,-0.117c-0.211,-0.177 -0.239,-0.493 -0.062,-0.704l1.928,-2.298c0.177,-0.211 0.493,-0.239 0.704,-0.062c0.211,0.177 0.239,0.493 0.062,0.704l-1.928,2.298c-0.098,0.119 -0.24,0.179 -0.383,0.179z" fill="#472b29"></path><path d="M56.75,38.809c-0.085,0 -0.171,-0.021 -0.25,-0.067c-0.239,-0.138 -0.321,-0.444 -0.183,-0.683l1.5,-2.598c0.138,-0.24 0.444,-0.321 0.683,-0.183c0.239,0.138 0.321,0.444 0.183,0.683l-1.5,2.598c-0.093,0.16 -0.261,0.25 -0.433,0.25z" fill="#472b29"></path><path d="M54.617,37.814c-0.057,0 -0.115,-0.01 -0.171,-0.03c-0.26,-0.094 -0.394,-0.381 -0.299,-0.641l1.026,-2.819c0.094,-0.26 0.382,-0.393 0.641,-0.299c0.26,0.094 0.394,0.381 0.299,0.641l-1.026,2.819c-0.074,0.203 -0.266,0.329 -0.47,0.329z" fill="#472b29"></path><path d="M48.059,43.255c-0.221,0 -0.422,-0.147 -0.482,-0.371l-0.777,-2.897c-0.072,-0.267 0.087,-0.541 0.354,-0.612c0.268,-0.071 0.541,0.086 0.612,0.354l0.777,2.897c0.072,0.267 -0.087,0.541 -0.354,0.612c-0.044,0.012 -0.087,0.017 -0.13,0.017z" fill="#472b29"></path><path d="M50,43c-0.276,0 -0.5,-0.224 -0.5,-0.5v-3c0,-0.276 0.224,-0.5 0.5,-0.5c0.276,0 0.5,0.224 0.5,0.5v3c0,0.276 -0.224,0.5 -0.5,0.5z" fill="#472b29"></path><path d="M51.941,43.255c-0.043,0 -0.086,-0.005 -0.13,-0.017c-0.267,-0.071 -0.425,-0.346 -0.354,-0.612l0.777,-2.897c0.072,-0.267 0.346,-0.424 0.612,-0.354c0.267,0.071 0.425,0.346 0.354,0.612l-0.777,2.897c-0.059,0.224 -0.261,0.371 -0.482,0.371z" fill="#472b29"></path><path d="M53.75,44.005c-0.085,0 -0.171,-0.021 -0.25,-0.067c-0.239,-0.138 -0.321,-0.444 -0.183,-0.683l1.5,-2.598c0.139,-0.239 0.443,-0.321 0.683,-0.183c0.239,0.138 0.321,0.444 0.183,0.683l-1.5,2.598c-0.093,0.16 -0.261,0.25 -0.433,0.25z" fill="#472b29"></path><path d="M55.303,45.197c-0.128,0 -0.256,-0.049 -0.354,-0.146c-0.195,-0.195 -0.195,-0.512 0,-0.707l2.122,-2.122c0.195,-0.195 0.512,-0.195 0.707,0c0.195,0.195 0.195,0.512 0,0.707l-2.122,2.122c-0.097,0.097 -0.225,0.146 -0.353,0.146z" fill="#472b29"></path><path d="M56.496,46.75c-0.173,0 -0.341,-0.089 -0.434,-0.25c-0.138,-0.239 -0.056,-0.545 0.183,-0.683l2.598,-1.5c0.238,-0.139 0.544,-0.057 0.683,0.183c0.138,0.239 0.056,0.545 -0.183,0.683l-2.598,1.5c-0.078,0.046 -0.164,0.067 -0.249,0.067z" fill="#472b29"></path><path d="M57.244,48.559c-0.221,0 -0.422,-0.147 -0.482,-0.371c-0.072,-0.267 0.087,-0.541 0.354,-0.612l2.897,-0.777c0.268,-0.071 0.541,0.087 0.612,0.354c0.071,0.267 -0.087,0.541 -0.354,0.612l-2.897,0.777c-0.043,0.012 -0.087,0.017 -0.13,0.017z" fill="#472b29"></path><path d="M42.575,57.925c-0.128,0 -0.256,-0.049 -0.354,-0.146c-0.195,-0.195 -0.195,-0.512 0,-0.707l2.122,-2.122c0.195,-0.195 0.512,-0.195 0.707,0c0.195,0.195 0.195,0.512 0,0.707l-2.122,2.122c-0.097,0.097 -0.225,0.146 -0.353,0.146z" fill="#472b29"></path><path d="M40.907,55.75c-0.173,0 -0.341,-0.089 -0.434,-0.25c-0.138,-0.239 -0.056,-0.545 0.183,-0.683l2.598,-1.5c0.238,-0.138 0.545,-0.056 0.683,0.183c0.138,0.239 0.056,0.545 -0.183,0.683l-2.598,1.5c-0.078,0.046 -0.164,0.067 -0.249,0.067z" fill="#472b29"></path><path d="M39.857,53.218c-0.221,0 -0.422,-0.147 -0.482,-0.371c-0.072,-0.267 0.087,-0.541 0.354,-0.612l2.897,-0.777c0.268,-0.07 0.541,0.087 0.612,0.354c0.071,0.267 -0.087,0.541 -0.354,0.612l-2.897,0.777c-0.043,0.011 -0.087,0.017 -0.13,0.017z" fill="#472b29"></path><path d="M42.5,50.5h-3c-0.276,0 -0.5,-0.224 -0.5,-0.5c0,-0.276 0.224,-0.5 0.5,-0.5h3c0.276,0 0.5,0.224 0.5,0.5c0,0.276 -0.224,0.5 -0.5,0.5z" fill="#472b29"></path><path d="M42.756,48.559c-0.043,0 -0.086,-0.005 -0.13,-0.017l-2.897,-0.777c-0.267,-0.071 -0.425,-0.346 -0.354,-0.612c0.071,-0.266 0.346,-0.423 0.612,-0.354l2.897,0.777c0.267,0.071 0.425,0.346 0.354,0.612c-0.06,0.224 -0.261,0.371 -0.482,0.371z" fill="#472b29"></path><path d="M43.504,46.75c-0.085,0 -0.171,-0.021 -0.25,-0.067l-2.598,-1.5c-0.239,-0.138 -0.321,-0.444 -0.183,-0.683c0.138,-0.24 0.444,-0.322 0.683,-0.183l2.598,1.5c0.239,0.138 0.321,0.444 0.183,0.683c-0.092,0.16 -0.26,0.25 -0.433,0.25z" fill="#472b29"></path><path d="M44.697,45.197c-0.128,0 -0.256,-0.049 -0.354,-0.146l-2.122,-2.122c-0.195,-0.195 -0.195,-0.512 0,-0.707c0.195,-0.195 0.512,-0.195 0.707,0l2.122,2.122c0.195,0.195 0.195,0.512 0,0.707c-0.097,0.097 -0.225,0.146 -0.353,0.146z" fill="#472b29"></path><path d="M60.143,53.218c-0.043,0 -0.086,-0.005 -0.13,-0.017l-2.897,-0.777c-0.267,-0.071 -0.425,-0.346 -0.354,-0.612c0.072,-0.267 0.347,-0.423 0.612,-0.354l2.897,0.777c0.267,0.071 0.425,0.346 0.354,0.612c-0.06,0.224 -0.262,0.371 -0.482,0.371z" fill="#472b29"></path><path d="M59.093,55.75c-0.085,0 -0.171,-0.021 -0.25,-0.067l-2.598,-1.5c-0.239,-0.138 -0.321,-0.444 -0.183,-0.683c0.138,-0.239 0.444,-0.321 0.683,-0.183l2.598,1.5c0.239,0.138 0.321,0.444 0.183,0.683c-0.092,0.16 -0.26,0.25 -0.433,0.25z" fill="#472b29"></path><path d="M57.425,57.925c-0.128,0 -0.256,-0.049 -0.354,-0.146l-2.122,-2.122c-0.195,-0.195 -0.195,-0.512 0,-0.707c0.195,-0.195 0.512,-0.195 0.707,0l2.122,2.122c0.195,0.195 0.195,0.512 0,0.707c-0.097,0.097 -0.225,0.146 -0.353,0.146z" fill="#472b29"></path><path d="M55.25,59.593c-0.173,0 -0.341,-0.089 -0.434,-0.25l-1.5,-2.598c-0.138,-0.239 -0.056,-0.545 0.183,-0.683c0.237,-0.139 0.544,-0.057 0.683,0.183l1.5,2.598c0.138,0.239 0.056,0.545 -0.183,0.683c-0.078,0.046 -0.164,0.067 -0.249,0.067z" fill="#472b29"></path><path d="M52.717,60.642c-0.221,0 -0.422,-0.147 -0.482,-0.371l-0.777,-2.897c-0.072,-0.267 0.087,-0.541 0.354,-0.612c0.269,-0.071 0.541,0.087 0.612,0.354l0.777,2.897c0.072,0.267 -0.087,0.541 -0.354,0.612c-0.043,0.012 -0.087,0.017 -0.13,0.017z" fill="#472b29"></path><path d="M50,61c-0.276,0 -0.5,-0.224 -0.5,-0.5v-3c0,-0.276 0.224,-0.5 0.5,-0.5c0.276,0 0.5,0.224 0.5,0.5v3c0,0.276 -0.224,0.5 -0.5,0.5z" fill="#472b29"></path><path d="M47.283,60.642c-0.043,0 -0.086,-0.005 -0.13,-0.017c-0.267,-0.071 -0.425,-0.346 -0.354,-0.612l0.777,-2.897c0.072,-0.267 0.346,-0.423 0.612,-0.354c0.267,0.071 0.425,0.346 0.354,0.612l-0.777,2.897c-0.06,0.224 -0.262,0.371 -0.482,0.371z" fill="#472b29"></path><g fill="#cbc9bc"><path d="M50,58.75c-4.825,0 -8.75,-3.925 -8.75,-8.75c0,-4.825 3.925,-8.75 8.75,-8.75c4.825,0 8.75,3.925 8.75,8.75c0,4.825 -3.925,8.75 -8.75,8.75zM50,43.75c-3.446,0 -6.25,2.804 -6.25,6.25c0,3.446 2.804,6.25 6.25,6.25c3.446,0 6.25,-2.804 6.25,-6.25c0,-3.446 -2.804,-6.25 -6.25,-6.25z"></path></g><g fill="#472b29"><path d="M50,41.5c4.687,0 8.5,3.813 8.5,8.5c0,4.687 -3.813,8.5 -8.5,8.5c-4.687,0 -8.5,-3.813 -8.5,-8.5c0,-4.687 3.813,-8.5 8.5,-8.5M50,56.5c3.584,0 6.5,-2.916 6.5,-6.5c0,-3.584 -2.916,-6.5 -6.5,-6.5c-3.584,0 -6.5,2.916 -6.5,6.5c0,3.584 2.916,6.5 6.5,6.5M50,41c-4.962,0 -9,4.038 -9,9c0,4.962 4.038,9 9,9c4.962,0 9,-4.038 9,-9c0,-4.962 -4.038,-9 -9,-9zM50,56c-3.309,0 -6,-2.691 -6,-6c0,-3.309 2.691,-6 6,-6c3.309,0 6,2.691 6,6c0,3.309 -2.691,6 -6,6z"></path></g><path d="M52.345,37.205c-0.029,0 -0.058,-0.002 -0.087,-0.008c-0.272,-0.048 -0.454,-0.307 -0.405,-0.579l0.521,-2.955c0.047,-0.272 0.308,-0.454 0.579,-0.405c0.272,0.048 0.454,0.307 0.405,0.579l-0.521,2.955c-0.043,0.243 -0.254,0.413 -0.492,0.413z" fill="#472b29"></path><g fill="#e1e0d8"><path d="M50,64.75c-8.133,0 -14.75,-6.617 -14.75,-14.75c0,-8.133 6.617,-14.75 14.75,-14.75c8.133,0 14.75,6.617 14.75,14.75c0,8.133 -6.617,14.75 -14.75,14.75zM51.443,51.25c-0.445,0 -0.86,0.239 -1.083,0.625l-4.632,8.024c-0.193,0.334 -0.223,0.733 -0.08,1.094c0.141,0.355 0.429,0.622 0.791,0.731c1.15,0.349 2.348,0.526 3.561,0.526c5.721,0 10.622,-3.889 11.92,-9.458c0.087,-0.375 0,-0.764 -0.241,-1.067c-0.24,-0.302 -0.598,-0.476 -0.982,-0.476h-9.254zM42.482,40.738c-0.32,0 -0.625,0.121 -0.859,0.34c-2.498,2.342 -3.873,5.51 -3.873,8.922c0,3.412 1.375,6.58 3.873,8.921c0.234,0.22 0.539,0.34 0.859,0.34c0.449,0 0.866,-0.24 1.089,-0.627l4.625,-8.01c0.223,-0.386 0.223,-0.864 0,-1.25l-4.625,-8.01c-0.223,-0.385 -0.64,-0.626 -1.089,-0.626zM50,37.75c-1.213,0 -2.411,0.177 -3.561,0.526c-0.362,0.11 -0.65,0.376 -0.791,0.731c-0.143,0.36 -0.113,0.759 0.08,1.094l4.632,8.024c0.222,0.386 0.637,0.625 1.083,0.625h9.253c0.384,0 0.743,-0.173 0.982,-0.476c0.241,-0.303 0.328,-0.691 0.241,-1.067c-1.297,-5.568 -6.198,-9.457 -11.919,-9.457z"></path></g><g fill="#472b29"><path d="M50,35.5c7.995,0 14.5,6.505 14.5,14.5c0,7.995 -6.505,14.5 -14.5,14.5c-7.995,0 -14.5,-6.505 -14.5,-14.5c0,-7.995 6.505,-14.5 14.5,-14.5M51.443,49h9.253c0.461,0 0.891,-0.208 1.179,-0.57c0.288,-0.363 0.393,-0.829 0.288,-1.279c-1.324,-5.682 -6.326,-9.651 -12.163,-9.651c-1.237,0 -2.459,0.18 -3.633,0.536c-0.436,0.132 -0.783,0.453 -0.951,0.879c-0.171,0.432 -0.136,0.909 0.096,1.31l4.633,8.024c0.266,0.464 0.764,0.751 1.298,0.751M42.482,59.512c0.538,0 1.038,-0.288 1.306,-0.752l4.624,-8.01c0.267,-0.463 0.267,-1.037 0,-1.5l-4.624,-8.01c-0.268,-0.464 -0.768,-0.752 -1.306,-0.752c-0.384,0 -0.75,0.145 -1.03,0.408c-2.549,2.389 -3.952,5.623 -3.952,9.104c0,3.481 1.403,6.715 3.951,9.104c0.281,0.263 0.647,0.408 1.031,0.408M50,62.5c5.837,0 10.839,-3.969 12.163,-9.651c0.105,-0.45 0,-0.916 -0.288,-1.279c-0.288,-0.362 -0.718,-0.57 -1.179,-0.57h-9.253c-0.534,0 -1.032,0.287 -1.299,0.75l-4.633,8.024c-0.232,0.401 -0.266,0.879 -0.096,1.31c0.169,0.427 0.515,0.747 0.951,0.879c1.175,0.357 2.397,0.537 3.634,0.537M50,35c-8.28,0 -15,6.72 -15,15c0,8.28 6.72,15 15,15c8.28,0 15,-6.72 15,-15c0,-8.28 -6.72,-15 -15,-15zM51.443,48.5c-0.357,0 -0.687,-0.191 -0.866,-0.5l-4.633,-8.024c-0.321,-0.556 -0.046,-1.275 0.568,-1.461c1.104,-0.335 2.275,-0.515 3.488,-0.515c5.688,0 10.439,3.955 11.676,9.264c0.147,0.63 -0.333,1.236 -0.98,1.236h-9.253zM42.482,59.012c-0.245,0 -0.492,-0.088 -0.688,-0.272c-2.332,-2.187 -3.794,-5.289 -3.794,-8.74c0,-3.451 1.462,-6.553 3.793,-8.739c0.196,-0.184 0.443,-0.272 0.688,-0.272c0.344,0 0.684,0.174 0.873,0.502l4.624,8.01c0.179,0.309 0.179,0.691 0,1l-4.624,8.01c-0.188,0.326 -0.528,0.501 -0.872,0.501zM50,62c-1.213,0 -2.384,-0.18 -3.488,-0.515c-0.614,-0.186 -0.888,-0.905 -0.568,-1.461l4.633,-8.024c0.179,-0.309 0.509,-0.5 0.866,-0.5h9.253c0.646,0 1.127,0.606 0.98,1.236c-1.237,5.309 -5.988,9.264 -11.676,9.264z"></path></g><circle cx="50" cy="50" r="1" fill="#472b29"></circle></g></g></g></svg>